<svg width="13" height="13" viewBox="0 0 13 13" fill="none" xmlns="http://www.w3.org/2000/svg">
<path d="M11.7208 8.41232C10.9628 8.41232 10.2186 8.29376 9.51327 8.06069C9.16767 7.94281 8.74282 8.05095 8.53189 8.26758L7.13978 9.31848C5.52533 8.45668 4.53086 7.46253 3.68083 5.8602L4.70081 4.50436C4.9658 4.23971 5.06085 3.85313 4.94697 3.49041C4.7129 2.78141 4.59399 2.03748 4.59399 1.27915C4.59402 0.731326 4.14834 0.285645 3.60055 0.285645H1.32685C0.779055 0.285645 0.333374 0.731326 0.333374 1.27912C0.333374 7.55826 5.44173 12.6666 11.7208 12.6666C12.2686 12.6666 12.7143 12.2209 12.7143 11.6731V9.40576C12.7143 8.858 12.2686 8.41232 11.7208 8.41232Z" fill="white"/>
</svg>
