<svg width="6" height="12" viewBox="0 0 6 12" fill="none" xmlns="http://www.w3.org/2000/svg">
<path fill-rule="evenodd" clip-rule="evenodd" d="M1.8898 6.0481V11.3717C1.8898 11.4359 1.95493 11.5 2.02007 11.5H4.03915C4.10428 11.5 4.16941 11.4359 4.16941 11.3717V5.9519H5.63487C5.7 5.9519 5.76513 5.88776 5.76513 5.82362L5.8954 4.18805C5.8954 4.09184 5.83026 4.0277 5.76513 4.0277H4.16941V2.90525C4.16941 2.64869 4.39737 2.4242 4.6579 2.4242H5.76513C5.83026 2.4242 5.8954 2.36006 5.8954 2.29592V0.62828C5.96053 0.56414 5.8954 0.5 5.7977 0.5H3.90888C2.80164 0.5 1.8898 1.39796 1.8898 2.48834V4.05977H0.880263C0.815132 4.05977 0.75 4.12391 0.75 4.18805V5.82362C0.75 5.88776 0.815132 5.9519 0.880263 5.9519H1.8898V6.0481Z" fill="white"/>
</svg>
