<svg width="12" height="12" viewBox="0 0 12 12" fill="none" xmlns="http://www.w3.org/2000/svg">
<path d="M8.88827 2.52793C8.51955 2.52793 8.24302 2.80447 8.24302 3.17318C8.24302 3.5419 8.51955 3.81844 8.88827 3.81844C9.25698 3.81844 9.53352 3.5419 9.53352 3.17318C9.53352 2.80447 9.25698 2.52793 8.88827 2.52793ZM6.03073 3.35754C4.52514 3.35754 3.32682 4.58659 3.32682 6.06145C3.32682 7.53631 4.55587 8.76536 6.03073 8.76536C7.50559 8.76536 8.73464 7.53631 8.73464 6.06145C8.73464 4.58659 7.53631 3.35754 6.03073 3.35754ZM6.03073 7.81285C5.07821 7.81285 4.27933 7.04469 4.27933 6.06145C4.27933 5.10894 5.04749 4.31006 6.03073 4.31006C6.98324 4.31006 7.78212 5.07821 7.78212 6.06145C7.7514 7.04469 6.98324 7.81285 6.03073 7.81285ZM11.5 3.81844C11.5 1.97486 10.0251 0.5 8.18156 0.5H3.81844C1.97486 0.5 0.5 1.97486 0.5 3.81844V8.18156C0.5 10.0251 1.97486 11.5 3.81844 11.5H8.18156C10.0251 11.5 11.5 10.0251 11.5 8.18156V3.81844ZM10.4553 8.18156C10.4553 9.44134 9.44134 10.4553 8.18156 10.4553H3.81844C2.55866 10.4553 1.54469 9.44134 1.54469 8.18156V3.81844C1.54469 2.55866 2.55866 1.54469 3.81844 1.54469H8.18156C9.44134 1.54469 10.4553 2.55866 10.4553 3.81844V8.18156Z" fill="white"/>
</svg>
