<svg width="32" height="32" viewBox="0 0 32 32" fill="none" xmlns="http://www.w3.org/2000/svg">
<path d="M31.3671 30.1762C30.9726 29.9464 28.5707 28.459 27.2856 25.7696C30.287 22.9631 31.9941 19.0589 31.9941 15.0633C31.9941 6.79392 24.7836 0.00354004 15.9971 0.00354004C7.21056 0.00354004 0 6.79392 0 15.0633C0 23.3327 7.21056 30.123 15.9971 30.123C17.1766 30.123 18.4435 30.0125 20.1915 29.6452C24.7857 32.0865 28.9094 32.0179 30.4783 31.9931C31.1768 31.9844 31.6838 32.1105 31.9447 31.389C32.1214 30.905 31.8601 30.3459 31.3671 30.1762ZM17.8717 22.6244C17.8717 23.6597 17.0324 24.4991 15.9971 24.4991C14.9617 24.4991 14.1224 23.6597 14.1224 22.6244V15.0633C14.1224 14.0279 14.9617 13.1886 15.9971 13.1886C17.0324 13.1886 17.8717 14.0279 17.8717 15.0633V22.6244ZM15.9971 10.3142C14.9617 10.3142 14.1224 9.47473 14.1224 8.43948C14.1224 7.4041 14.9617 6.56479 15.9971 6.56479C17.0324 6.56479 17.8717 7.4041 17.8717 8.43948C17.8717 9.47479 17.0324 10.3142 15.9971 10.3142Z" fill="white"/>
</svg>
